<svg width="420" height="94" viewBox="0 0 420 94" fill="none" xmlns="http://www.w3.org/2000/svg">
<rect width="420" height="94" fill="#F8F8FB"/>
<rect x="10" y="10" width="400" height="36" fill="#EFF0F4"/>
<rect x="10" y="10" width="400" height="1" fill="#AEB1BF"/>
<rect x="10" y="45" width="400" height="1" fill="#AEB1BF"/>
<path d="M118.165 22.301V33.988H119.231V22.301H118.165ZM113.082 23.198C111.353 23.198 110.118 24.784 110.118 27.267C110.118 29.75 111.353 31.336 113.082 31.336C114.811 31.336 116.046 29.75 116.046 27.267C116.046 24.784 114.811 23.198 113.082 23.198ZM113.082 24.16C114.213 24.16 115.019 25.382 115.019 27.267C115.019 29.165 114.213 30.387 113.082 30.387C111.938 30.387 111.132 29.165 111.132 27.267C111.132 25.382 111.938 24.16 113.082 24.16ZM128.486 25.525V26.396H130.826V30.855H131.905V22.314H130.826V25.525H128.486ZM129.175 28.268C127.485 27.67 126.341 26.214 126.341 24.693V24.121H128.902V23.25H122.675V24.121H125.275V24.706C125.275 26.357 124.066 27.904 122.337 28.528L122.896 29.36C124.261 28.866 125.327 27.787 125.834 26.461C126.341 27.657 127.342 28.632 128.642 29.1L129.175 28.268ZM125.522 32.831V30.101H124.443V33.702H132.23V32.831H125.522ZM136.389 27.566H139.782V26.721H136.389V24.511H139.964V23.64H135.362V31.076H136.129C138.014 31.076 139.132 31.037 140.484 30.777L140.38 29.893C139.132 30.14 138.092 30.192 136.389 30.192V27.566ZM143.799 22.301V26.981H142.252V22.561H141.238V33.39H142.252V27.852H143.799V33.962H144.813V22.301H143.799ZM157.565 28.164C155.524 27.774 153.314 26.006 153.314 24.017V23.12H152.196V24.017C152.196 26.006 149.999 27.761 147.958 28.164L148.439 29.048C150.194 28.632 152.014 27.384 152.755 25.681C153.496 27.397 155.316 28.645 157.084 29.048L157.565 28.164ZM147.516 31.518V32.402H158.085V31.518H147.516ZM161.087 27.033L161.243 27.917L168.276 27.527C168.211 28.424 168.081 29.386 167.821 30.504L168.874 30.608C169.381 28.216 169.381 26.643 169.381 24.914V23.484H161.386V24.355H168.341V24.914C168.341 25.512 168.341 26.11 168.315 26.721L161.087 27.033ZM160.138 31.466V32.337H170.681V31.466H160.138Z" fill="#35384D"/>
<path d="M312.472 23.159C310.665 23.159 309.352 24.264 309.352 25.902C309.352 27.527 310.665 28.645 312.472 28.645C314.292 28.645 315.592 27.527 315.592 25.902C315.592 24.264 314.292 23.159 312.472 23.159ZM312.472 24.069C313.681 24.069 314.552 24.81 314.552 25.902C314.552 26.981 313.681 27.735 312.472 27.735C311.276 27.735 310.392 26.981 310.392 25.902C310.392 24.81 311.276 24.069 312.472 24.069ZM317.126 22.301V33.988H318.192V22.301H317.126ZM308.897 31.427C311.003 31.427 313.824 31.401 316.45 30.92L316.359 30.127C313.811 30.517 310.886 30.53 308.767 30.53L308.897 31.427ZM327.109 31.609V28.619H330.658V27.761H323.703V24.108H330.541V23.237H322.637V28.619H326.03V31.609H321.285V32.493H331.88V31.609H327.109Z" fill="#35384D"/>
<rect x="10" y="46" width="400" height="38" fill="white"/>
<rect x="50" y="46" width="180" height="37" fill="#F2F3F7"/>
<rect x="10" y="83" width="400" height="1" fill="#C2C3C9"/>
<rect x="20.5" y="54.5" width="19" height="19" rx="2.5" fill="white" stroke="#B5BFC8"/>
<rect x="60.5" y="50.5" width="159" height="27" rx="2.5" fill="white" stroke="#B5BFC8"/>
<rect x="240.5" y="50.5" width="159" height="27" rx="2.5" fill="white" stroke="#B5BFC8"/>
<line x1="202.707" y1="62.2929" x2="207.707" y2="67.2929" stroke="#0B2A4A" stroke-width="2"/>
<line x1="206.293" y1="67.2929" x2="211.293" y2="62.2929" stroke="#0B2A4A" stroke-width="2"/>
<line x1="383.707" y1="62.2929" x2="388.707" y2="67.2929" stroke="#0B2A4A" stroke-width="2"/>
<line x1="387.293" y1="67.2929" x2="392.293" y2="62.2929" stroke="#0B2A4A" stroke-width="2"/>
<path d="M69.651 65.178C71.406 64.801 73.239 63.644 73.98 62.032C74.721 63.631 76.567 64.775 78.348 65.126L78.777 64.268C76.749 63.943 74.526 62.344 74.526 60.485V60.238H78.387V59.367H69.56V60.238H73.421V60.485C73.421 62.344 71.211 63.969 69.196 64.307L69.651 65.178ZM74.513 67.583V64.762H73.447V67.583H68.689V68.467H79.271V67.583H74.513ZM88.331 63.787C86.602 63.189 85.406 61.668 85.406 59.991V58.847H84.34V59.991C84.34 61.733 83.157 63.358 81.402 63.995L81.948 64.84C83.313 64.32 84.379 63.241 84.886 61.863C85.406 63.15 86.459 64.151 87.798 64.632L88.331 63.787ZM83.066 66.777H89.8V69.975H90.866V65.919H83.066V66.777ZM89.8 58.314V65.321H90.866V58.314H89.8Z" fill="#35384D"/>
<path d="M249.651 65.178C251.406 64.801 253.239 63.644 253.98 62.032C254.721 63.631 256.567 64.775 258.348 65.126L258.777 64.268C256.749 63.943 254.526 62.344 254.526 60.485V60.238H258.387V59.367H249.56V60.238H253.421V60.485C253.421 62.344 251.211 63.969 249.196 64.307L249.651 65.178ZM254.513 67.583V64.762H253.447V67.583H248.689V68.467H259.271V67.583H254.513ZM268.331 63.787C266.602 63.189 265.406 61.668 265.406 59.991V58.847H264.34V59.991C264.34 61.733 263.157 63.358 261.402 63.995L261.948 64.84C263.313 64.32 264.379 63.241 264.886 61.863C265.406 63.15 266.459 64.151 267.798 64.632L268.331 63.787ZM263.066 66.777H269.8V69.975H270.866V65.919H263.066V66.777ZM269.8 58.314V65.321H270.866V58.314H269.8ZM278.418 59.549V60.433H282.695C282.448 63.189 280.849 65.425 277.872 66.92L278.457 67.752C282.227 65.867 283.748 62.864 283.748 59.549H278.418ZM288.636 63.033H286.764V58.301H285.698V69.962H286.764V63.917H288.636V63.033ZM292.21 66.634H298.931V69.936H300.01V65.776H292.21V66.634ZM298.931 58.301V60.381H296.357C296.461 59.965 296.513 59.523 296.513 59.081H291.183V59.952H295.369C295.161 61.941 293.393 63.488 290.572 64.255L291.001 65.113C293.497 64.411 295.304 63.085 296.084 61.252H298.931V62.851H295.915V63.722H298.931V65.256H300.01V58.301H298.931Z" fill="#35384D"/>
</svg>
