<svg width="238" height="102" viewBox="0 0 238 102" fill="none" xmlns="http://www.w3.org/2000/svg">
<rect width="238" height="102" fill="#F7F8FA"/>
<path d="M17 10.5H221C224.59 10.5 227.5 13.4101 227.5 17V85C227.5 88.5899 224.59 91.5 221 91.5H10.5V17C10.5 13.4101 13.4101 10.5 17 10.5Z" fill="white" stroke="#EAEBED"/>
<path d="M23.1 27.454C23.1 26.222 24.024 25.354 25.256 25.354C26.488 25.354 27.412 26.222 27.412 27.454C27.412 28.686 26.488 29.554 25.256 29.554C24.024 29.554 23.1 28.686 23.1 27.454ZM28.532 27.454C28.532 25.634 27.132 24.36 25.256 24.36C23.38 24.36 21.98 25.634 21.98 27.454C21.98 29.274 23.38 30.548 25.256 30.548C27.132 30.548 28.532 29.274 28.532 27.454ZM24.822 31.78H23.674V35.756H32.046V34.818H24.822V31.78ZM31.486 27.3V23.478H30.338V32.718H31.486V28.252H33.334V27.3H31.486ZM43.8049 31.192H44.9669V23.478H43.8049V24.962H40.2769V25.858H43.8049V27.174H40.2769V28.07H43.8049V31.192ZM41.8029 28.924C40.1229 29.274 38.6249 29.372 36.5109 29.372V24.234H35.3769V30.324H36.3289C38.5829 30.324 40.1509 30.226 41.9429 29.862L41.8029 28.924ZM40.8229 35.126C38.9329 35.126 37.7849 34.58 37.7849 33.67C37.7849 32.746 38.9329 32.2 40.8229 32.2C42.7129 32.2 43.8609 32.746 43.8609 33.67C43.8609 34.58 42.7129 35.126 40.8229 35.126ZM40.8229 31.304C38.2469 31.304 36.6369 32.158 36.6369 33.67C36.6369 35.168 38.2469 36.036 40.8229 36.036C43.3989 36.036 45.0089 35.168 45.0089 33.67C45.0089 32.158 43.3989 31.304 40.8229 31.304ZM51.1818 32.284C50.0478 32.284 49.2218 31.472 49.2218 30.352C49.2218 29.218 50.0478 28.406 51.1818 28.406C52.3298 28.406 53.1558 29.218 53.1558 30.352C53.1558 31.472 52.3298 32.284 51.1818 32.284ZM51.1818 27.454C49.4178 27.454 48.1438 28.658 48.1438 30.352C48.1438 32.06 49.4178 33.236 51.1818 33.236C52.9738 33.236 54.2478 32.06 54.2478 30.352C54.2478 28.658 52.9738 27.454 51.1818 27.454ZM51.7418 23.632H50.5938V25.494H47.4298V26.418H54.8358V25.494H51.7418V23.632ZM59.2318 28.644H57.1738V23.492H56.0258V36.036H57.1738V29.61H59.2318V28.644ZM64.1027 24.668H62.9967V27.062C62.9967 29.218 61.9607 31.472 60.2387 32.48L60.9527 33.334C62.1987 32.564 63.1087 31.15 63.5567 29.484C64.0047 31.01 64.8447 32.34 66.0347 33.068L66.6927 32.172C65.0407 31.164 64.1027 29.036 64.1027 27.02V24.668ZM67.4067 27.986H65.3347V28.938H67.4067V35.42H68.4847V23.758H67.4067V27.986ZM69.9547 23.478V36.036H71.0467V23.478H69.9547ZM77.1916 30.52C77.7096 30.646 78.3116 30.716 78.9276 30.716C79.5576 30.716 80.1596 30.646 80.6916 30.52V33.474H77.1916V30.52ZM78.9276 25.172C80.9436 25.172 82.3996 26.096 82.3996 27.496C82.3996 28.896 80.9436 29.82 78.9276 29.82C76.9116 29.82 75.4696 28.896 75.4696 27.496C75.4696 26.096 76.9116 25.172 78.9276 25.172ZM81.8396 33.474V30.072C82.8756 29.526 83.4916 28.63 83.4916 27.496C83.4916 25.536 81.6016 24.276 78.9276 24.276C76.2676 24.276 74.3636 25.536 74.3636 27.496C74.3636 28.63 74.9936 29.54 76.0436 30.086V33.474H73.2436V34.426H84.6536V33.474H81.8396ZM87.2812 33.25C87.5911 33.25 87.8304 33.3389 87.999 33.5166C88.1676 33.6898 88.252 33.9085 88.252 34.1729C88.252 34.4326 88.1676 34.6491 87.999 34.8223C87.8304 34.9909 87.5911 35.0752 87.2812 35.0752C86.985 35.0752 86.7503 34.9909 86.5771 34.8223C86.404 34.6536 86.3174 34.4372 86.3174 34.1729C86.3174 33.9085 86.4017 33.6898 86.5703 33.5166C86.7389 33.3389 86.9759 33.25 87.2812 33.25ZM23.338 51.148H26.992V50.238H23.338V47.858H27.188V46.92H22.232V54.928H23.058C25.088 54.928 26.292 54.886 27.748 54.606L27.636 53.654C26.292 53.92 25.172 53.976 23.338 53.976V51.148ZM31.318 45.478V50.518H29.652V45.758H28.56V57.42H29.652V51.456H31.318V58.036H32.41V45.478H31.318ZM45.4429 51.792C43.2449 51.372 40.8649 49.468 40.8649 47.326V46.36H39.6609V47.326C39.6609 49.468 37.2949 51.358 35.0969 51.792L35.6149 52.744C37.5049 52.296 39.4649 50.952 40.2629 49.118C41.0609 50.966 43.0209 52.31 44.9249 52.744L45.4429 51.792ZM34.6209 55.404V56.356H46.0029V55.404H34.6209ZM48.5358 50.574L48.7038 51.526L56.2778 51.106C56.2078 52.072 56.0678 53.108 55.7878 54.312L56.9218 54.424C57.4678 51.848 57.4678 50.154 57.4678 48.292V46.752H48.8578V47.69H56.3478V48.292C56.3478 48.936 56.3478 49.58 56.3198 50.238L48.5358 50.574ZM47.5138 55.348V56.286H58.8678V55.348H47.5138ZM63.2207 54.214C62.2127 54.214 61.5827 52.94 61.5827 50.882C61.5827 48.866 62.2127 47.592 63.2207 47.592C64.2007 47.592 64.8447 48.866 64.8447 50.882C64.8447 52.94 64.2007 54.214 63.2207 54.214ZM67.4627 50.364H65.8807C65.7407 47.998 64.7327 46.528 63.2207 46.528C61.5827 46.528 60.5327 48.208 60.5327 50.882C60.5327 53.598 61.5827 55.278 63.2207 55.278C64.7607 55.278 65.7827 53.766 65.8807 51.302H67.4627V57.42H68.5547V45.758H67.4627V50.364ZM69.9547 45.478V58.036H71.0467V45.478H69.9547ZM81.91 50.784H78.382V47.242H81.91V50.784ZM83.03 46.332H77.262V51.708H83.03V46.332ZM86.698 54.312V53.388H78.494V54.312H81.994C81.854 55.656 80.076 56.804 78.004 57.112L78.424 57.994C80.286 57.7 81.896 56.804 82.61 55.53C83.324 56.79 84.934 57.7 86.754 58.008L87.188 57.126C85.144 56.804 83.338 55.628 83.198 54.312H86.698ZM86.488 48.488V45.478H85.34V52.646H86.488V49.44H88.35V48.488H86.488ZM99.6889 49.258H92.2969V45.94H91.1489V50.196H99.6889V49.258ZM92.2129 54.06H91.0649V57.728H99.7589V56.79H92.2129V54.06ZM89.6089 51.876V52.8H100.991V51.876H89.6089ZM108.508 55.74H115.886V52.898H107.346V53.766H114.752V54.886H107.388V57.896H116.264V57H108.508V55.74ZM108.424 47.802C108.424 46.962 109.6 46.486 111.658 46.486C113.716 46.486 114.892 46.962 114.892 47.802C114.892 48.642 113.716 49.118 111.658 49.118C109.6 49.118 108.424 48.642 108.424 47.802ZM112.232 50.924V49.972C114.64 49.874 116.068 49.118 116.068 47.802C116.068 46.388 114.43 45.618 111.658 45.618C108.9 45.618 107.248 46.388 107.248 47.802C107.248 49.104 108.662 49.874 111.084 49.972V50.924H105.988V51.848H117.328V50.924H112.232ZM124.089 54.074H120.505V50.77H124.089V54.074ZM124.089 49.86H120.505V46.542H119.371V55.012H125.209V46.542H124.089V49.86ZM130.599 50.42H128.527V45.492H127.379V58.022H128.527V51.386H130.599V50.42ZM140.538 48.166H133.202V51.288H141.938V50.392H134.336V49.02H141.672V45.898H133.174V46.794H140.538V48.166ZM134.378 54.34H133.23V57.756H141.938V56.818H134.378V54.34ZM131.732 52.436V53.374H143.128V52.436H131.732ZM155.377 50.378C153.739 50.714 152.311 50.798 149.833 50.798V47.228H154.215V46.304H148.685V51.75H149.665C152.297 51.75 153.781 51.666 155.503 51.302L155.377 50.378ZM156.721 56.888H151.079V55.32H156.721V56.888ZM156.721 54.41H151.079V52.842H149.945V57.826H157.855V52.842H156.721V54.41ZM159.717 48.418H157.855V45.464H156.707V52.17H157.855V49.37H159.717V48.418ZM170.174 48.712V50.49H167.276V48.712H170.174ZM166.142 51.708H162.754V49.44H166.142V51.708ZM167.276 51.428H170.174V54.774H171.336V45.492H170.174V47.788H167.276V46.318H166.142V48.53H162.754V46.318H161.62V52.632H167.276V51.428ZM164.406 56.818V53.864H163.258V57.756H171.63V56.818H164.406ZM179.539 46.556C181.597 46.556 182.773 47.032 182.773 47.872C182.773 48.712 181.597 49.188 179.539 49.188C177.481 49.188 176.305 48.712 176.305 47.872C176.305 47.032 177.481 46.556 179.539 46.556ZM179.539 50.042C182.297 50.042 183.949 49.286 183.949 47.872C183.949 46.458 182.297 45.688 179.539 45.688C176.781 45.688 175.129 46.458 175.129 47.872C175.129 49.286 176.781 50.042 179.539 50.042ZM176.389 55.726H183.767V52.898H175.227V53.766H182.633V54.886H175.269V57.896H184.145V57H176.389V55.726ZM173.855 50.896V51.82H185.223V50.896H173.855ZM197.528 51.624C195.68 50.994 194.476 49.44 194.476 47.774V47.284H197.248V46.36H190.514V47.284H193.328V47.788C193.328 49.58 192.068 51.204 190.178 51.862L190.78 52.772C192.25 52.226 193.384 51.12 193.916 49.72C194.462 51.008 195.54 52.03 196.94 52.52L197.528 51.624ZM191.802 54.648H198.83V58.05H199.978V53.724H191.802V54.648ZM201.84 48.782H199.978V45.492H198.83V53.052H199.978V49.734H201.84V48.782ZM212.297 52.912H213.459V45.492H212.297V48.152H209.567V49.09H212.297V52.912ZM210.477 51.428C208.643 50.784 207.425 49.23 207.425 47.438V46.192H206.277V47.48C206.277 49.398 205.031 51.078 203.099 51.764L203.701 52.702C205.213 52.128 206.347 50.994 206.879 49.51C207.425 50.812 208.489 51.806 209.861 52.324L210.477 51.428ZM209.315 57.112C207.425 57.112 206.277 56.566 206.277 55.656C206.277 54.732 207.425 54.186 209.315 54.186C211.205 54.186 212.353 54.732 212.353 55.656C212.353 56.566 211.205 57.112 209.315 57.112ZM209.315 53.29C206.739 53.29 205.129 54.144 205.129 55.656C205.129 57.154 206.739 58.022 209.315 58.022C211.891 58.022 213.501 57.154 213.501 55.656C213.501 54.144 211.891 53.29 209.315 53.29ZM24.85 76.172C23.87 76.172 23.184 75.374 23.184 74.254C23.184 73.162 23.87 72.364 24.85 72.364C25.816 72.364 26.516 73.162 26.516 74.254C26.516 75.374 25.816 76.172 24.85 76.172ZM24.85 71.398C23.296 71.398 22.162 72.574 22.162 74.254C22.162 75.962 23.296 77.124 24.85 77.124C26.404 77.124 27.538 75.962 27.538 74.254C27.538 72.574 26.404 71.398 24.85 71.398ZM25.41 67.842H24.276V69.62H21.728V70.558H27.958V69.62H25.41V67.842ZM31.276 67.464V72.77H29.666V67.758H28.588V79.42H29.666V73.708H31.276V80.022H32.382V67.464H31.276ZM35.7409 73.582C37.6869 73.246 39.5349 72.196 40.3049 70.712C41.0609 72.196 42.9229 73.246 44.8689 73.582L45.3169 72.672C43.1049 72.35 40.9349 70.908 40.9349 69.256V69.186H44.8689V68.262H35.6989V69.186H39.6609V69.256C39.6609 70.908 37.4909 72.35 35.3069 72.672L35.7409 73.582ZM45.9749 74.632H34.6349V75.57H39.7029V80.036H40.8509V75.57H45.9889L45.9749 74.632ZM51.2238 68.668H50.1178V71.062C50.1178 73.218 49.0818 75.472 47.3598 76.48L48.0738 77.334C49.3198 76.564 50.2298 75.15 50.6778 73.484C51.1258 75.01 51.9658 76.34 53.1558 77.068L53.8138 76.172C52.1618 75.164 51.2238 73.036 51.2238 71.02V68.668ZM54.5278 71.986H52.4558V72.938H54.5278V79.42H55.6058V67.758H54.5278V71.986ZM57.0758 67.478V80.036H58.1678V67.478H57.0758ZM64.3127 74.52C64.8307 74.646 65.4327 74.716 66.0487 74.716C66.6787 74.716 67.2807 74.646 67.8127 74.52V77.474H64.3127V74.52ZM66.0487 69.172C68.0647 69.172 69.5207 70.096 69.5207 71.496C69.5207 72.896 68.0647 73.82 66.0487 73.82C64.0327 73.82 62.5907 72.896 62.5907 71.496C62.5907 70.096 64.0327 69.172 66.0487 69.172ZM68.9607 77.474V74.072C69.9967 73.526 70.6127 72.63 70.6127 71.496C70.6127 69.536 68.7227 68.276 66.0487 68.276C63.3887 68.276 61.4847 69.536 61.4847 71.496C61.4847 72.63 62.1147 73.54 63.1647 74.086V77.474H60.3647V78.426H71.7747V77.474H68.9607ZM74.4023 77.25C74.7122 77.25 74.9515 77.3389 75.1201 77.5166C75.2887 77.6898 75.373 77.9085 75.373 78.1729C75.373 78.4326 75.2887 78.6491 75.1201 78.8223C74.9515 78.9909 74.7122 79.0752 74.4023 79.0752C74.1061 79.0752 73.8714 78.9909 73.6982 78.8223C73.5251 78.6536 73.4385 78.4372 73.4385 78.1729C73.4385 77.9085 73.5228 77.6898 73.6914 77.5166C73.86 77.3389 74.097 77.25 74.4023 77.25Z" fill="#403738"/>
</svg>
