<?xml version="1.0" encoding="utf-8"?>
<!-- Generator: Adobe Illustrator 24.3.0, SVG Export Plug-In . SVG Version: 6.00 Build 0)  -->
<svg version="1.1" id="레이어_1" xmlns="http://www.w3.org/2000/svg" xmlns:xlink="http://www.w3.org/1999/xlink" x="0px"
	 y="0px" viewBox="0 0 220 39" style="enable-background:new 0 0 220 39;" xml:space="preserve">
<style type="text/css">
	.st0{fill:#BB392C;}
</style>
<g>
	<g>
		<path class="st0" d="M82.4,0c4.1,0,6.7,0.7,8.7,2.2c2.4,1.9,3.7,5.1,3.7,8.9c0,4.8-1.9,8-5.9,10.2l7.3,17.6h-6.9l-6.1-16.2h-6.1
			v16.2h-6.4V0H82.4z M77.2,17.6h5c4.1,0,6.3-2.4,6.3-6.6c0-0.8-0.1-1.4-0.2-2c-0.8-2.8-2.6-4-6.1-4h-5V17.6z"/>
		<path class="st0" d="M123.3,0v5.1h-15.8v11.2h12.4v5.1h-12.4v12.2h16.1v5.2H101V0H123.3z"/>
		<path class="st0" d="M137.1,0c4.8,0,8.6,1,11.3,3c4.1,3.1,6.5,8.9,6.5,16.1c0,2.9-0.4,5.8-1.2,8.4c-1.5,4.9-4.7,8.6-8.8,10.2
			c-2,0.8-4.4,1.1-7.3,1.1h-9.2V0H137.1z M134.7,33.7h2.7c7,0,10.7-4.9,10.7-14.3c0-2.2-0.2-4.1-0.6-6c-1.2-5.4-4.7-8.3-10-8.3h-2.7
			V33.7z"/>
		<path class="st0" d="M179.5,0v5.5h-8.7v33.4h-6.4V5.5h-8.6V0H179.5z"/>
		<path class="st0" d="M190.7,0v38.8h-6.4V0H190.7z"/>
		<path class="st0" d="M219.4,0v5.1h-15.8v11.2H216v5.1h-12.4v12.2h16.1v5.2h-22.5V0H219.4z"/>
	</g>
	<path class="st0" d="M51.6,0L51.6,0L51.6,0L51.6,0L25.8,10.8L0,0l0,0v38.8l0,0L25.8,28l25.8,10.8l0,0v0l0,0V0z M25.8,21.2L6.4,29.5
		V9.3l19.4,8.4l19.4-8.4v20.3L25.8,21.2z"/>
</g>
</svg>
