<svg xmlns="http://www.w3.org/2000/svg" width="114" height="46" viewBox="0 0 114 46">
    <g fill="none" transform="translate(-1)">
        <path fill="#14B7CC" d="M15.94 45.17c-7.479.01-13.812-5.512-14.823-12.922-1.01-7.41 3.615-14.426 10.823-16.418.601-7.848 6.474-14.277 14.236-15.584C33.938-1.06 41.592 3.091 44.73 10.31c3.684-2.016 8.124-2.091 11.874-.202 3.75 1.89 6.333 5.502 6.906 9.662 3.602.495 6.823 2.498 8.86 5.51.359.814.08 1.768-.66 2.261-.74.493-1.727.383-2.34-.261-1.691-2.505-4.518-4.005-7.54-4H60v-1.83c.01-3.553-2.052-6.785-5.278-8.275-3.225-1.49-7.023-.965-9.722 1.345l-2.21 1.88-.74-2.8C40.3 7.074 33.984 2.854 27.285 3.735c-6.7.88-11.71 6.588-11.715 13.345v1.73l-1.55.26c-5.776.983-9.837 6.225-9.347 12.063.49 5.839 5.368 10.33 11.227 10.337 1.01 0 1.83.82 1.83 1.83 0 1.01-.82 1.83-1.83 1.83l.04.04z"/>
        <path fill="#002B49" d="M36.17 32.77c-1.413.001-2.757.61-3.69 1.67-.864-.983-2.084-1.58-3.39-1.66h-.31c-1.834.01-3.515 1.023-4.38 2.64-.353.658-.535 1.394-.53 2.14v7.5h2.47v-7.72c0-.616.293-1.196.79-1.56.743-.621 1.777-.76 2.657-.356.88.404 1.45 1.278 1.463 2.246v7.39h2.47v-7.72c0-.616.293-1.196.79-1.56.743-.621 1.777-.76 2.657-.356.88.404 1.45 1.278 1.463 2.246v7.39h2.47v-7.5c.01-.634-.12-1.262-.38-1.84-.805-1.792-2.586-2.946-4.55-2.95zM54.05 34.7c-1.152-1.156-2.718-1.804-4.35-1.8-2.062.004-3.986 1.038-5.127 2.756-1.14 1.717-1.348 3.892-.553 5.794.625 1.478 1.802 2.655 3.28 3.28 1.781.746 3.808.616 5.48-.35v-2.07c-.1-.166-.266-.283-.456-.32-.19-.039-.388.005-.544.12-.181.144-.384.259-.6.34-1.476.613-3.179.217-4.233-.985-1.054-1.201-1.226-2.94-.427-4.325.29-.55.74-1 1.29-1.29 1.15-.661 2.563-.663 3.713-.004s1.865 1.878 1.877 3.204v6h2.47v-6c.004-1.632-.644-3.198-1.8-4.35h-.02zM69.38 32.9h-2.51V40c0 .88-.448 1.698-1.19 2.17-.946.714-2.215.83-3.275.3s-1.729-1.615-1.725-2.8V32.9h-2.47v6.77c0 .742.15 1.477.44 2.16.28.656.68 1.253 1.18 1.76.506.507 1.107.908 1.77 1.18 1.377.586 2.933.586 4.31 0 .66-.272 1.258-.673 1.76-1.18 1.045-1.036 1.63-2.449 1.62-3.92l.09-6.77zM84.14 32.77c-1.413.001-2.757.61-3.69 1.67-.861-.98-2.077-1.578-3.38-1.66h-.32c-1.834.01-3.515 1.023-4.38 2.64-.341.66-.513 1.396-.5 2.14v7.5h2.47v-7.72c0-.616.293-1.196.79-1.56.743-.621 1.777-.76 2.657-.356.88.404 1.45 1.278 1.463 2.246v7.39h2.48v-7.72c-.005-.615.285-1.195.78-1.56.743-.621 1.777-.76 2.657-.356.88.404 1.45 1.278 1.463 2.246v7.39h2.48v-7.5c.01-.627-.12-1.25-.38-1.82-.805-1.813-2.606-2.978-4.59-2.97zM93.55 42.99c-.506-.386-1.219-.338-1.668.112-.45.45-.498 1.162-.112 1.668.053.073.117.137.19.19.506.386 1.219.338 1.668-.112.45-.45.498-1.162.112-1.668-.053-.073-.117-.137-.19-.19zM112.69 32.79L109.97 32.79 109.97 45.09 112.69 45.09zM105.72 34.7c-1.152-1.156-2.718-1.804-4.35-1.8-1.635-.007-3.206.642-4.36 1.8-.566.575-1.014 1.254-1.32 2-.64 1.533-.64 3.257 0 4.79.625 1.478 1.802 2.655 3.28 3.28.76.32 1.576.483 2.4.48 1.082-.002 2.144-.289 3.08-.83v-2.07c-.1-.166-.266-.283-.456-.32-.19-.039-.388.005-.544.12-.18.145-.383.26-.6.34-1.476.613-3.179.217-4.233-.985-1.054-1.201-1.226-2.94-.427-4.325.29-.55.74-1 1.29-1.29 1.15-.661 2.563-.663 3.713-.004s1.865 1.878 1.877 3.204v6h2.47v-6c.002-.82-.161-1.634-.48-2.39-.312-.748-.767-1.427-1.34-2z"/>
        <circle cx="111.35" cy="27.61" r="3.07" fill="#14B7CC"/>
    </g>
</svg>
