<svg width="15" height="15" viewBox="0 0 15 15" fill="none" xmlns="http://www.w3.org/2000/svg">
<path d="M12.4219 1.875H9.84375V1.40625C9.84375 0.62959 9.21416 0 8.4375 0H6.5625C5.78584 0 5.15625 0.62959 5.15625 1.40625V1.875H2.57812C1.93093 1.875 1.40625 2.39968 1.40625 3.04688V3.78C1.40625 4.0389 1.6161 4.25 1.875 4.25H13.125C13.3839 4.25 13.5938 4.0389 13.5938 3.78V3.04688C13.5938 2.39968 13.0691 1.875 12.4219 1.875ZM6.09375 1.40625C6.09375 1.14785 6.3041 0.9375 6.5625 0.9375H8.4375C8.6959 0.9375 8.90625 1.14785 8.90625 1.40625V1.875H6.09375V1.40625Z" fill="#EA4F4A"/>
<path d="M2.29687 5.39062C2.21323 5.39062 2.14658 5.46053 2.15056 5.54408L2.53728 13.6605C2.57302 14.4117 3.19001 15 3.94177 15H11.0603C11.8121 15 12.4291 14.4117 12.4648 13.6605L12.8515 5.54408C12.8555 5.46053 12.7889 5.39062 12.7052 5.39062H2.29687ZM8.38 7.06C8.38 6.80102 9.04102 6.59 9.3 6.59C9.55898 6.59 10.21 6.80102 10.21 7.06V12.6562C10.21 12.9152 9.55898 13.125 9.3 13.125C9.04102 13.125 8.38 12.9152 8.38 12.6562V7.06ZM4.79 7.06C4.79 6.80102 5.44102 6.59 5.7 6.59C5.95898 6.59 6.63 6.80102 6.63 7.06V12.6562C6.63 12.9152 5.95898 13.125 5.7 13.125C5.44102 13.125 4.79 12.9152 4.79 12.6562C4.79 12.6562 4.79 7.31898 4.79 7.06Z" fill="#EA4F4A"/>
</svg>
