<svg width="11" height="13" viewBox="0 0 11 13" fill="none" xmlns="http://www.w3.org/2000/svg">
<path d="M6.1046 12.9636C8.64089 12.6715 10.6735 10.5868 10.9628 7.97901C11.3425 4.56923 8.76486 1.66667 5.53381 1.62949V0.0998642C5.53381 0.0148851 5.4305 -0.03026 5.36076 0.0228519L2.29758 2.33587C2.24593 2.37571 2.24593 2.45272 2.29758 2.49256L5.36076 4.80558C5.4305 4.85869 5.53381 4.81089 5.53381 4.72857V3.2016C7.80407 3.23878 9.62235 5.22516 9.46738 7.59926C9.33566 9.64142 7.71626 11.2985 5.7301 11.4286C3.62513 11.5667 1.83527 10.0212 1.515 7.97636C1.4556 7.59661 1.13275 7.32043 0.760831 7.32043C0.298514 7.32043 -0.0630754 7.74267 0.00924243 8.21271C0.458646 11.1259 3.075 13.3114 6.1046 12.9636Z" fill="#8C94B1"/>
</svg>
