<svg width="16" height="16" viewBox="0 0 16 16" fill="none" xmlns="http://www.w3.org/2000/svg">
<path d="M14.5376 7.99935C14.5376 7.60593 14.4958 7.22097 14.4243 6.84709L16 5.96776C15.6184 4.56603 14.8606 3.31086 13.8243 2.31949L12.2446 3.20078C11.6418 2.70184 10.9433 2.31102 10.1794 2.05048V0.289855C9.48363 0.10552 8.75479 0 8.00034 0C7.24588 0 6.51772 0.106823 5.82125 0.289855V2.05113C5.05735 2.31168 4.35953 2.70314 3.7561 3.20143L2.17572 2.32014C1.14079 3.31151 0.382285 4.56668 0 5.96841L1.57634 6.84774C1.50487 7.22228 1.46239 7.60593 1.46239 8C1.46239 8.39407 1.50487 8.77837 1.57634 9.15226L0 10.0316C0.382285 11.4333 1.14079 12.6891 2.17572 13.6799L3.75543 12.7986C4.35886 13.2975 5.05668 13.6883 5.82057 13.9489V15.7101C6.51704 15.8938 7.24521 16 7.99966 16C8.75412 16 9.48363 15.8932 10.1788 15.7101V13.9489C10.9426 13.6883 11.6411 13.2969 12.2439 12.7986L13.8236 13.6799C14.8599 12.6885 15.6177 11.4333 15.9993 10.0316L14.4237 9.15226C14.4958 8.77707 14.5376 8.39342 14.5376 7.99935ZM8.00101 10.9474C6.31545 10.9474 4.9488 9.62775 4.9488 8C4.9488 6.37225 6.31545 5.05195 8.00101 5.05195C9.68455 5.05195 11.0512 6.3716 11.0512 7.99935C11.0512 9.6271 9.68455 10.9474 8.00101 10.9474Z" fill="white"/>
</svg>
