<svg width="15" height="16" viewBox="0 0 15 16" fill="none" xmlns="http://www.w3.org/2000/svg">
<path d="M12.6652 7.03064C12.2966 7.03064 11.9986 7.32934 11.9986 7.69726V13.0306C11.9986 13.3979 11.7 13.6973 11.3321 13.6973H1.99977C1.63177 13.6973 1.33322 13.3979 1.33322 13.0306V3.69726C1.33322 3.32996 1.63177 3.03064 1.99977 3.03064H7.33254C7.70116 3.03064 7.9991 2.73193 7.9991 2.36401C7.9991 1.99597 7.70116 1.69727 7.33254 1.69727H1.99977C0.897237 1.69727 0 2.5946 0 3.69726V13.0306C0 14.1333 0.897237 15.0306 1.99977 15.0306H11.3321C12.4346 15.0306 13.3319 14.1333 13.3319 13.0306V7.69726C13.3319 7.32861 13.0338 7.03064 12.6652 7.03064Z" fill="#8C94B1"/>
<path d="M5.25264 7.4231C5.20601 7.46973 5.17465 7.52905 5.16134 7.59302L4.69008 9.95044C4.66811 10.0597 4.70278 10.1724 4.78138 10.2517C4.84473 10.3151 4.93004 10.349 5.01744 10.349C5.03868 10.349 5.06077 10.347 5.08274 10.3424L7.43916 9.87109C7.50446 9.85767 7.56378 9.82642 7.6098 9.77966L12.8839 4.505L10.5274 2.14844L5.25264 7.4231Z" fill="#8C94B1"/>
<path d="M14.5113 0.518768C13.8615 -0.131256 12.8043 -0.131256 12.1549 0.518768L11.2324 1.44138L13.5888 3.79807L14.5113 2.87534C14.826 2.56137 14.9993 2.14267 14.9993 1.69736C14.9993 1.25204 14.826 0.833344 14.5113 0.518768Z" fill="#8C94B1"/>
</svg>
