<svg width="15" height="15" viewBox="0 0 15 15" fill="none" xmlns="http://www.w3.org/2000/svg">
<path d="M10.908 10.9092H4.08984V12.2728H10.908V10.9092Z" fill="#8C94B1"/>
<path d="M4.08984 13.6367V14.3185V15.0003H10.908V14.3185V13.6367H4.08984Z" fill="#8C94B1"/>
<path d="M14.8634 3.92118L12.1237 0.272461C11.995 0.100957 11.793 0 11.5785 0H10.4546V0.681826V1.36365V5.68184C10.4546 6.05833 10.1493 6.36366 9.77273 6.36366H3.4091C3.03255 6.36366 2.72728 6.05833 2.72728 5.68184V1.36362V0.681826V0H0.681826C0.305273 0 0 0.305332 0 0.681826V14.3182C0 14.6947 0.305273 15 0.681826 15H2.72728V14.3182V13.6363V12.9545V10.2272C2.72728 9.85066 3.03255 9.54542 3.4091 9.54542H11.5909C11.9675 9.54542 12.2728 9.85063 12.2728 10.2272V12.9545V13.6363V14.3182V15H14.3182C14.6947 15 15 14.6947 15 14.3182V4.33058C15 4.18295 14.952 4.03922 14.8634 3.92118Z" fill="#8C94B1"/>
<path d="M4.08984 0V0.681826V1.36362V5.00001H9.08987V1.36362V0.681826V0H4.08984Z" fill="#8C94B1"/>
</svg>
