<svg width="12" height="12" viewBox="0 0 12 12" fill="none" xmlns="http://www.w3.org/2000/svg">
<path d="M0.347449 10.825C0.0248087 10.5023 0.0248087 9.97923 0.347449 9.65659L9.69451 0.309367C10.0172 -0.0132784 10.5403 -0.0132787 10.8629 0.309367C11.1855 0.632012 11.1855 1.15512 10.8629 1.47777L1.51583 10.825C1.19319 11.1476 0.670089 11.1476 0.347449 10.825Z" fill="#EA4F4A"/>
<path d="M0.34804 0.309774C0.67068 -0.0128711 1.19378 -0.012871 1.51642 0.309774L10.8635 9.657C11.1861 9.97964 11.1861 10.5028 10.8635 10.8254C10.5408 11.148 10.0177 11.148 9.69511 10.8254L0.34804 1.47818C0.0254 1.15553 0.0253998 0.63242 0.34804 0.309774Z" fill="#EA4F4A"/>
</svg>
