<svg xmlns="http://www.w3.org/2000/svg" xmlns:xlink="http://www.w3.org/1999/xlink" width="155" height="62" viewBox="0 0 155 62">
    <defs>
        <path id="28ebrpxgua" d="M0.092 0.139L40.725 0.139 40.725 41.034 0.092 41.034z"/>
        <path id="hszw1rujlc" d="M0.22 0.14L40.903 0.14 40.903 40.933 0.22 40.933z"/>
    </defs>
    <g fill="none" fill-rule="evenodd">
        <g>
            <g>
                <g>
                    <g>
                        <path fill="#5D1FFF" d="M16.718 9.352l13.702 8.225c.047-.49.072-.986.072-1.488 0-8.42-6.825-15.247-15.243-15.247C6.829.84.003 7.664 0 16.084v11.862c0 1.872 1.517 3.388 3.387 3.388H8.81V13.827c-.002-2.882 2.333-5.22 5.215-5.222.95 0 1.88.258 2.694.747" transform="translate(-483 -872) translate(0 620) translate(482 222.04) translate(1 29.96)"/>
                        <path fill="#1DB6CC" d="M35.226 21.178l-4.975-2.912c-.764 7.585-7.306 13.366-15.124 13.366H8.712v4.796c0 2.8 2.33 5.07 5.202 5.07.943 0 1.869-.25 2.677-.723l18.635-10.901c2.464-1.441 3.262-4.556 1.783-6.958-.439-.713-1.051-1.31-1.783-1.738" transform="translate(-483 -872) translate(0 620) translate(482 222.04) translate(1 29.96)"/>
                        <path fill="#0964FF" d="M30.492 17.271L16.679 8.864c-2.49-1.516-5.722-.697-7.217 1.829-.49.83-.75 1.778-.75 2.745v17.896h6.486c7.906 0 14.522-6.083 15.294-14.063" transform="translate(-483 -872) translate(0 620) translate(482 222.04) translate(1 29.96)"/>
                        <path fill="#FFF" d="M62.454 44.581l-4.398-12.905-4.444 12.905h8.842zm3.12-19.127c1.328 3.775 2.496 7.124 3.502 10.049 1.005 2.924 2.003 5.712 2.991 8.364l2.915 8.315c.99 2.823 2.131 6.036 3.426 9.64h-5.114c-1.191 0-2.146-.034-2.864-.102-.618-.035-1.217-.228-1.739-.56-.533-.259-.972-.678-1.253-1.2-.419-.774-.77-1.583-1.05-2.418l-1.89-5.713H51.303l-2.148 6.836c-.186.7-.488 1.363-.893 1.963-.281.39-.661.697-1.1.89-.445.22-.937.325-1.433.306h-7.978c2.318-6.29 4.49-12.47 6.52-18.54 2.028-6.07 4.15-12.046 6.366-17.928.273-.645.495-1.215.665-1.71.148-.45.373-.873.665-1.248.375-.313.798-.563 1.253-.741.682-.257 1.396-.42 2.123-.484H60.2c.754-.017 1.508.043 2.25.178.505.1.977.319 1.38.637.402.379.716.84.92 1.352.24.56.514 1.264.822 2.114z" transform="translate(-483 -872) translate(0 620) translate(482 222.04) translate(1 29.96)"/>
                        <g transform="translate(-483 -872) translate(0 620) translate(482 222.04) translate(1 29.96) translate(75.504 19.718)">
                            <mask id="4114zm2egb" fill="#fff">
                                <use xlink:href="#28ebrpxgua"/>
                            </mask>
                            <path fill="#FFF" d="M31.232.548c.477-.268 1.014-.409 1.562-.409h7.931L26.338 41.03h-7.266c-1.235.043-2.457-.258-3.531-.868-.873-.51-1.65-1.169-2.3-1.945-.556-.626-1.014-1.334-1.355-2.098-.29-.682-.487-1.176-.59-1.485L.093.141H7.51c.617-.005 1.23.09 1.817.28.592.216 1.066.672 1.305 1.255l9.57 29.376 10.03-29.427c.192-.468.547-.85.999-1.077" mask="url(#4114zm2egb)"/>
                        </g>
                        <g transform="translate(-483 -872) translate(0 620) translate(482 222.04) translate(1 29.96) translate(113.256 19.718)">
                            <mask id="s1gb9x2kid" fill="#fff">
                                <use xlink:href="#hszw1rujlc"/>
                            </mask>
                            <path fill="#FFF" d="M24.938 23.63l-4.4-12.948-4.452 12.948h8.852zM28.06 4.438c1.33 3.788 2.498 7.149 3.504 10.083 1.007 2.934 2.004 5.732 2.994 8.392.955 2.73 1.928 5.511 2.917 8.343.99 2.832 2.132 6.057 3.428 9.673h-5.117c-1.193 0-2.148-.034-2.867-.102-.618-.036-1.217-.23-1.74-.563-.533-.26-.971-.68-1.252-1.203-.42-.777-.77-1.588-1.05-2.426l-1.893-5.733H13.78l-2.148 6.86c-.187.7-.489 1.366-.894 1.969-.28.39-.661.7-1.101.894-.445.22-.937.325-1.433.306H.22c2.32-6.31 4.494-12.512 6.524-18.602 2.03-6.091 4.153-12.087 6.37-17.99.274-.646.496-1.218.666-1.714.148-.453.373-.877.666-1.253.375-.314.798-.565 1.254-.744.683-.257 1.397-.42 2.124-.485h4.86c.756-.017 1.51.043 2.253.179.504.1.978.32 1.382.639.402.38.716.842.92 1.356.24.561.513 1.268.82 2.121z" mask="url(#s1gb9x2kid)"/>
                        </g>
                    </g>
                </g>
            </g>
        </g>
    </g>
</svg>
