<svg xmlns="http://www.w3.org/2000/svg" width="171" height="48" viewBox="0 0 171 48">
    <defs>
        <clipPath id="clip-path">
            <path id="사각형_172" fill="#ff9191" d="M0 0H171V48H0z" transform="translate(51 60.179)"/>
        </clipPath>
        <style>
            .cls-3{fill:#fff}
        </style>
    </defs>
    <g id="signature-white" clip-path="url(#clip-path)" transform="translate(-51 -60.179)">
        <path id="패스_569" d="M314.715 303.807A18.808 18.808 0 0 0 295.906 285a18.809 18.809 0 0 0-18.813 18.807 18.811 18.811 0 0 0 18.813 18.816h12.773a6.038 6.038 0 0 0 6.037-6.037zm-18.81 11.883a11.881 11.881 0 0 1-11.883-11.883 11.88 11.88 0 0 1 11.883-11.88 11.884 11.884 0 0 1 11.883 11.88v4.953c0 6.93 6.927 6.93 6.927 6.93z" class="cls-3" transform="translate(-171.227 -219.63)"/>
        <path id="패스_570" d="M712.656 303.807A18.812 18.812 0 0 0 693.837 285a18.809 18.809 0 0 0-18.807 18.807 18.812 18.812 0 0 0 18.807 18.816h12.773a6.038 6.038 0 0 0 6.046-6.037zm-18.819 11.883a11.879 11.879 0 0 1-11.877-11.883 11.878 11.878 0 0 1 11.877-11.88 11.881 11.881 0 0 1 11.889 11.88v4.953c0 6.93 6.93 6.93 6.93 6.93z" class="cls-3" transform="translate(-490.365 -219.63)"/>
        <path id="패스_571" d="M496.422 315.135a.323.323 0 0 1 .018.027v.006m-11.507-25.725a3.629 3.629 0 0 0-3.3-2.139 3.615 3.615 0 0 0-3.3 5.09L490.86 320.4a6.12 6.12 0 0 0 5.58 3.611 6.108 6.108 0 0 0 3.471-1.087c.012-.006.018-.015.029-.021a6.065 6.065 0 0 0 2.079-2.5l1.512-3.4h-4.218a3.071 3.071 0 0 1-.723-.084 3.165 3.165 0 0 1-2.15-1.762v.006zm13.9 20.366c-.819 2.07-.783 3.537-.3 4.588 1.171 2.611 5 2.611 5 2.611l11.01-24.614a3.613 3.613 0 0 0-3.3-5.09 3.615 3.615 0 0 0-3.3 2.139zm4.7 7.2z" class="cls-3" transform="translate(-332.354 -221.477)"/>
        <path id="패스_572" d="M19.54 269.947l16.019 9.612q.083-.851.085-1.738A17.819 17.819 0 0 0 17.822 260 17.819 17.819 0 0 0 0 277.821v13.863a3.963 3.963 0 0 0 3.96 3.961h6.34V275.18a6.1 6.1 0 0 1 9.24-5.233z" class="cls-3" transform="translate(51 -199.58)"/>
        <path id="패스_573" d="M83.1 362.29l-5.835-3.5a17.824 17.824 0 0 1-17.737 16.076H52v5.771a6.1 6.1 0 0 0 9.241 5.233L83.1 372.756a6.1 6.1 0 0 0 0-10.466z" class="cls-3" transform="translate(9.293 -278.807)"/>
    </g>
</svg>
